<svg width="1902" height="1393" xmlns="http://www.w3.org/2000/svg" xmlns:xlink="http://www.w3.org/1999/xlink" xml:space="preserve" overflow="hidden"><defs><clipPath id="clip0"><rect x="20858" y="495" width="1902" height="1393"/></clipPath><clipPath id="clip1"><rect x="20858" y="495" width="1902" height="1393"/></clipPath><clipPath id="clip2"><rect x="21132" y="545" width="1538" height="1127"/></clipPath></defs><g clip-path="url(#clip0)" transform="translate(-20858 -495)"><g clip-path="url(#clip1)"><rect x="20862" y="495" width="1896" height="1390" fill="#FFFFFF" fill-opacity="1"/><g><path d="M0 0 0.000360892 1127" stroke="#000000" stroke-width="3.4375" stroke-linecap="butt" stroke-linejoin="round" stroke-miterlimit="10" stroke-opacity="1" fill="none" fill-rule="evenodd" transform="matrix(1 0 0 -1 21132.5 1672.5)"/></g><g><path d="M21133.2 1672.5 21144.2 1672.5M21133.2 1626.55 21144.2 1626.55M21133.2 1581.55 21144.2 1581.55M21133.2 1536.55 21144.2 1536.55M21133.2 1491.55 21144.2 1491.55M21133.2 1446.55 21144.2 1446.55M21133.2 1401.55 21144.2 1401.55M21133.2 1356.54 21144.2 1356.54M21133.2 1311.54 21144.2 1311.54M21133.2 1266.54 21144.2 1266.54M21133.2 1221.54 21144.2 1221.54M21133.2 1176.54 21144.2 1176.54M21133.2 1131.54 21144.2 1131.54M21133.2 1086.54 21144.2 1086.54M21133.2 1041.53 21144.2 1041.53M21133.2 996.533 21144.2 996.533M21133.2 951.531 21144.2 951.531M21133.2 906.53 21144.2 906.53M21133.2 861.528 21144.2 861.528M21133.2 816.527 21144.2 816.527M21133.2 771.526 21144.2 771.526M21133.2 725.524 21144.2 725.524M21133.2 680.523 21144.2 680.523M21133.2 635.521 21144.2 635.521M21133.2 590.52 21144.2 590.52M21133.2 545.5 21144.2 545.5M21117.5 1672.5 21147.5 1672.5M21117.5 1446.55 21147.5 1446.55M21117.5 1221.54 21147.5 1221.54M21117.5 996.533 21147.5 996.533M21117.5 771.526 21147.5 771.526M21117.5 545.5 21147.5 545.5" stroke="#000000" stroke-width="3.4375" stroke-linecap="butt" stroke-linejoin="round" stroke-miterlimit="10" stroke-opacity="1" fill="none" fill-rule="nonzero"/></g><g><path d="M21132.5 1672.5 22670.5 1672.5" stroke="#000000" stroke-width="3.4375" stroke-linecap="butt" stroke-linejoin="round" stroke-miterlimit="10" stroke-opacity="1" fill="none" fill-rule="evenodd"/></g><g><path d="M21132.5 1660.55 21132.5 1671.56M21167.2 1660.55 21167.2 1671.56M21201.2 1660.55 21201.2 1671.56M21235.2 1660.55 21235.2 1671.56M21269.2 1660.55 21269.2 1671.56M21303.2 1660.55 21303.2 1671.56M21337.2 1660.55 21337.2 1671.56M21372.2 1660.55 21372.2 1671.56M21406.2 1660.55 21406.2 1671.56M21440.2 1660.55 21440.2 1671.56M21474.2 1660.55 21474.2 1671.56M21508.2 1660.55 21508.2 1671.56M21542.2 1660.55 21542.2 1671.56M21577.2 1660.55 21577.2 1671.56M21611.2 1660.55 21611.2 1671.56M21645.2 1660.55 21645.2 1671.56M21679.2 1660.55 21679.2 1671.56M21713.2 1660.55 21713.2 1671.56M21747.2 1660.55 21747.2 1671.56M21782.2 1660.55 21782.2 1671.56M21816.2 1660.55 21816.2 1671.56M21850.2 1660.55 21850.2 1671.56M21884.2 1660.55 21884.2 1671.56M21918.2 1660.55 21918.2 1671.56M21952.2 1660.55 21952.2 1671.56M21987.2 1660.55 21987.2 1671.56M22021.2 1660.55 22021.2 1671.56M22055.2 1660.55 22055.2 1671.56M22089.2 1660.55 22089.2 1671.56M22123.2 1660.55 22123.2 1671.56M22157.2 1660.55 22157.2 1671.56M22192.2 1660.55 22192.2 1671.56M22226.2 1660.55 22226.2 1671.56M22260.2 1660.55 22260.2 1671.56M22294.2 1660.55 22294.2 1671.56M22328.2 1660.55 22328.2 1671.56M22362.2 1660.55 22362.2 1671.56M22397.2 1660.55 22397.2 1671.56M22431.2 1660.55 22431.2 1671.56M22465.2 1660.55 22465.2 1671.56M22499.2 1660.55 22499.2 1671.56M22533.2 1660.55 22533.2 1671.56M22567.2 1660.55 22567.2 1671.56M22601.2 1660.55 22601.2 1671.56M22636.2 1660.55 22636.2 1671.56M22670.5 1660.55 22670.5 1671.56M21132.5 1657.5 21132.5 1687.5M21303.2 1657.5 21303.2 1687.5M21474.2 1657.5 21474.2 1687.5M21645.2 1657.5 21645.2 1687.5M21816.2 1657.5 21816.2 1687.5M21987.2 1657.5 21987.2 1687.5M22157.2 1657.5 22157.2 1687.5M22328.2 1657.5 22328.2 1687.5M22499.2 1657.5 22499.2 1687.5M22670.5 1657.5 22670.5 1687.5" stroke="#000000" stroke-width="3.4375" stroke-linecap="butt" stroke-linejoin="round" stroke-miterlimit="10" stroke-opacity="1" fill="none" fill-rule="nonzero"/></g><g><path d="M21202.6 1670.5C21202.6 1676.57 21197.7 1681.5 21191.6 1681.5 21185.5 1681.5 21180.6 1676.57 21180.6 1670.5 21180.6 1664.42 21185.5 1659.5 21191.6 1659.5 21197.7 1659.5 21202.6 1664.42 21202.6 1670.5Z" stroke="#000000" stroke-width="3.4375" stroke-linecap="butt" stroke-linejoin="round" stroke-miterlimit="10" stroke-opacity="1" fill="#000000" fill-rule="nonzero" fill-opacity="1"/><path d="M21261.6 1666.5C21261.6 1672.57 21256.7 1677.5 21250.6 1677.5 21244.5 1677.5 21239.6 1672.57 21239.6 1666.5 21239.6 1660.42 21244.5 1655.5 21250.6 1655.5 21256.7 1655.5 21261.6 1660.42 21261.6 1666.5Z" stroke="#000000" stroke-width="3.4375" stroke-linecap="butt" stroke-linejoin="round" stroke-miterlimit="10" stroke-opacity="1" fill="#000000" fill-rule="nonzero" fill-opacity="1"/><path d="M21379.6 1650.5C21379.6 1656.57 21374.7 1661.5 21368.6 1661.5 21362.5 1661.5 21357.6 1656.57 21357.6 1650.5 21357.6 1644.42 21362.5 1639.5 21368.6 1639.5 21374.7 1639.5 21379.6 1644.42 21379.6 1650.5Z" stroke="#000000" stroke-width="3.4375" stroke-linecap="butt" stroke-linejoin="round" stroke-miterlimit="10" stroke-opacity="1" fill="#000000" fill-rule="nonzero" fill-opacity="1"/><path d="M21418.6 1642.5C21418.6 1648.57 21413.7 1653.5 21407.6 1653.5 21401.5 1653.5 21396.6 1648.57 21396.6 1642.5 21396.6 1636.42 21401.5 1631.5 21407.6 1631.5 21413.7 1631.5 21418.6 1636.42 21418.6 1642.5Z" stroke="#000000" stroke-width="3.4375" stroke-linecap="butt" stroke-linejoin="round" stroke-miterlimit="10" stroke-opacity="1" fill="#000000" fill-rule="nonzero" fill-opacity="1"/><path d="M21536.6 1612.5C21536.6 1618.57 21531.7 1623.5 21525.6 1623.5 21519.5 1623.5 21514.6 1618.57 21514.6 1612.5 21514.6 1606.42 21519.5 1601.5 21525.6 1601.5 21531.7 1601.5 21536.6 1606.42 21536.6 1612.5Z" stroke="#000000" stroke-width="3.4375" stroke-linecap="butt" stroke-linejoin="round" stroke-miterlimit="10" stroke-opacity="1" fill="#000000" fill-rule="nonzero" fill-opacity="1"/><path d="M21633.6 1579.5C21633.6 1585.57 21628.7 1590.5 21622.6 1590.5 21616.5 1590.5 21611.6 1585.57 21611.6 1579.5 21611.6 1573.42 21616.5 1568.5 21622.6 1568.5 21628.7 1568.5 21633.6 1573.42 21633.6 1579.5Z" stroke="#000000" stroke-width="3.4375" stroke-linecap="butt" stroke-linejoin="round" stroke-miterlimit="10" stroke-opacity="1" fill="#000000" fill-rule="nonzero" fill-opacity="1"/><path d="M21707.6 1539.5C21707.6 1545.57 21702.7 1550.5 21696.6 1550.5 21690.5 1550.5 21685.6 1545.57 21685.6 1539.5 21685.6 1533.42 21690.5 1528.5 21696.6 1528.5 21702.7 1528.5 21707.6 1533.42 21707.6 1539.5Z" stroke="#000000" stroke-width="3.4375" stroke-linecap="butt" stroke-linejoin="round" stroke-miterlimit="10" stroke-opacity="1" fill="#000000" fill-rule="nonzero" fill-opacity="1"/><path d="M21733.6 1496.5C21733.6 1502.57 21728.7 1507.5 21722.6 1507.5 21716.5 1507.5 21711.6 1502.57 21711.6 1496.5 21711.6 1490.42 21716.5 1485.5 21722.6 1485.5 21728.7 1485.5 21733.6 1490.42 21733.6 1496.5Z" stroke="#000000" stroke-width="3.4375" stroke-linecap="butt" stroke-linejoin="round" stroke-miterlimit="10" stroke-opacity="1" fill="#000000" fill-rule="nonzero" fill-opacity="1"/><path d="M21997.6 1262.5C21997.6 1268.57 21992.7 1273.5 21986.6 1273.5 21980.5 1273.5 21975.6 1268.57 21975.6 1262.5 21975.6 1256.42 21980.5 1251.5 21986.6 1251.5 21992.7 1251.5 21997.6 1256.42 21997.6 1262.5Z" stroke="#000000" stroke-width="3.4375" stroke-linecap="butt" stroke-linejoin="round" stroke-miterlimit="10" stroke-opacity="1" fill="#000000" fill-rule="nonzero" fill-opacity="1"/><path d="M22450.6 676.5C22450.6 682.575 22445.7 687.499 22439.6 687.499 22433.5 687.499 22428.6 682.575 22428.6 676.5 22428.6 670.425 22433.5 665.5 22439.6 665.5 22445.7 665.5 22450.6 670.425 22450.6 676.5Z" stroke="#000000" stroke-width="3.4375" stroke-linecap="butt" stroke-linejoin="round" stroke-miterlimit="10" stroke-opacity="1" fill="#000000" fill-rule="nonzero" fill-opacity="1"/></g><g clip-path="url(#clip2)"><path d="M21191.5 1665.12 21194.2 1665.12 21197.2 1665.12 21200.2 1665.12 21203.2 1665.12 21205.2 1665.12 21208.2 1665.12C21208.6 1665.12 21208.9 1665.18 21209.3 1665.29L21212.3 1666.29 21211.2 1666.12 21212 1666.12C21213.9 1666.12 21215.4 1667.66 21215.4 1669.55 21215.4 1671.45 21213.9 1672.99 21212 1672.99L21211.2 1672.99C21210.8 1672.99 21210.5 1672.93 21210.1 1672.82L21207.1 1671.82 21208.2 1671.99 21205.2 1671.99 21203.2 1671.99 21200.2 1671.99 21197.2 1671.99 21194.2 1671.99 21191.5 1671.99C21189.6 1671.99 21188.1 1670.45 21188.1 1668.55 21188.1 1666.66 21189.6 1665.12 21191.5 1665.12ZM21239.5 1666.12 21242.2 1666.12 21244.2 1666.12 21247.2 1666.12 21250.2 1666.12 21253.2 1666.12 21252.1 1666.29 21255.1 1665.29C21255.5 1665.18 21255.8 1665.12 21256.2 1665.12L21258.2 1665.12 21259.9 1665.12C21261.8 1665.12 21263.4 1666.66 21263.4 1668.55 21263.4 1670.45 21261.8 1671.99 21259.9 1671.99L21258.2 1671.99 21256.2 1671.99 21257.3 1671.82 21254.3 1672.82C21253.9 1672.93 21253.6 1672.99 21253.2 1672.99L21250.2 1672.99 21247.2 1672.99 21244.2 1672.99 21242.2 1672.99 21239.5 1672.99C21237.6 1672.99 21236 1671.45 21236 1669.55 21236 1667.66 21237.6 1666.12 21239.5 1666.12ZM21287.3 1664.12 21289.2 1664.12 21288.1 1664.29 21291.1 1663.29C21291.5 1663.18 21291.8 1663.12 21292.2 1663.12L21295.2 1663.12 21298.2 1663.12 21300.2 1663.12 21299.1 1663.29 21302.1 1662.29C21302.5 1662.18 21302.8 1662.12 21303.2 1662.12L21306.2 1662.12 21307.6 1662.12C21309.5 1662.12 21311 1663.66 21311 1665.55 21311 1667.45 21309.5 1668.99 21307.6 1668.99L21306.2 1668.99 21303.2 1668.99 21304.3 1668.82 21301.3 1669.82C21300.9 1669.93 21300.6 1669.99 21300.2 1669.99L21298.2 1669.99 21295.2 1669.99 21292.2 1669.99 21293.3 1669.82 21290.3 1670.82C21289.9 1670.93 21289.6 1670.99 21289.2 1670.99L21287.3 1670.99C21285.4 1670.99 21283.8 1669.45 21283.8 1667.55 21283.8 1665.66 21285.4 1664.12 21287.3 1664.12ZM21333.5 1659.17 21336.1 1658.29C21336.5 1658.18 21336.8 1658.12 21337.2 1658.12L21339.2 1658.12 21342.2 1658.12 21341.1 1658.29 21344.1 1657.29C21344.5 1657.18 21344.8 1657.12 21345.2 1657.12L21348.2 1657.12 21347.1 1657.29 21350.1 1656.29C21350.5 1656.18 21350.8 1656.12 21351.2 1656.12L21353.2 1656.12 21352.1 1656.29 21353.5 1655.82C21355.3 1655.21 21357.3 1656.19 21357.9 1657.99 21358.5 1659.79 21357.5 1661.74 21355.7 1662.34L21354.3 1662.82C21353.9 1662.93 21353.6 1662.99 21353.2 1662.99L21351.2 1662.99 21352.3 1662.82 21349.3 1663.82C21348.9 1663.93 21348.6 1663.99 21348.2 1663.99L21345.2 1663.99 21346.3 1663.82 21343.3 1664.82C21342.9 1664.93 21342.6 1664.99 21342.2 1664.99L21339.2 1664.99 21337.2 1664.99 21338.3 1664.82 21335.6 1665.7C21333.8 1666.3 21331.9 1665.32 21331.3 1663.52 21330.7 1661.72 21331.7 1659.78 21333.5 1659.17ZM21380.2 1651.28 21383.1 1650.29 21386.1 1649.29C21386.5 1649.18 21386.8 1649.12 21387.2 1649.12L21390.2 1649.12 21388.7 1649.48 21390.7 1648.48C21391.1 1648.24 21391.7 1648.12 21392.2 1648.12L21395.2 1648.12 21394.1 1648.29 21397.1 1647.29 21399.9 1646.36C21401.7 1645.76 21403.7 1646.73 21404.3 1648.53 21404.9 1650.33 21403.9 1652.28 21402.1 1652.88L21399.3 1653.82 21396.3 1654.82C21395.9 1654.93 21395.6 1654.99 21395.2 1654.99L21392.2 1654.99 21393.7 1654.63 21391.7 1655.63C21391.3 1655.87 21390.7 1655.99 21390.2 1655.99L21387.2 1655.99 21388.3 1655.82 21385.3 1656.82 21382.3 1657.8C21380.5 1658.4 21378.6 1657.43 21378 1655.62 21377.4 1653.82 21378.4 1651.88 21380.2 1651.28ZM21426.3 1639.9 21428.1 1639.29C21428.5 1639.18 21428.8 1639.12 21429.2 1639.12L21432.2 1639.12 21430.7 1639.48 21432.7 1638.48C21432.8 1638.41 21433 1638.34 21433.1 1638.29L21436.1 1637.29 21439.1 1636.29 21442.1 1635.29C21442.5 1635.18 21442.8 1635.12 21443.2 1635.12L21445.2 1635.12 21444.1 1635.29 21446 1634.67C21447.8 1634.07 21449.7 1635.04 21450.3 1636.84 21450.9 1638.64 21450 1640.59 21448.2 1641.19L21446.3 1641.82C21445.9 1641.93 21445.6 1641.99 21445.2 1641.99L21443.2 1641.99 21444.3 1641.82 21441.3 1642.82 21438.3 1643.82 21435.3 1644.82 21435.7 1644.63 21433.7 1645.63C21433.3 1645.87 21432.7 1645.99 21432.2 1645.99L21429.2 1645.99 21430.3 1645.82 21428.5 1646.42C21426.7 1647.02 21424.7 1646.05 21424.1 1644.25 21423.5 1642.45 21424.5 1640.5 21426.3 1639.9ZM21471.6 1626.54 21471.7 1626.48C21471.8 1626.41 21472 1626.34 21472.1 1626.29L21475.1 1625.29 21478.1 1624.29 21481.1 1623.29 21484.1 1622.29 21483.7 1622.48 21485.7 1621.48C21485.8 1621.41 21486 1621.34 21486.1 1621.29L21489.1 1620.29 21491.4 1619.52C21493.2 1618.92 21495.2 1619.89 21495.8 1621.69 21496.4 1623.49 21495.4 1625.44 21493.6 1626.04L21491.3 1626.81 21488.3 1627.81 21488.7 1627.63 21486.7 1628.63C21486.6 1628.7 21486.4 1628.76 21486.3 1628.81L21483.3 1629.81 21480.3 1630.81 21477.3 1631.81 21474.3 1632.81 21474.7 1632.63 21474.6 1632.68C21472.9 1633.53 21470.9 1632.85 21470 1631.15 21469.2 1629.45 21469.9 1627.38 21471.6 1626.54ZM21517.3 1610.24 21520.1 1609.29 21523.1 1608.29 21521.8 1609.12 21523.8 1607.12C21524.2 1606.74 21524.6 1606.46 21525.1 1606.29L21528.1 1605.29 21531.1 1604.29 21534.1 1603.29 21536.2 1602.61C21538 1602.01 21539.9 1602.98 21540.5 1604.78 21541.1 1606.58 21540.1 1608.53 21538.3 1609.13L21536.3 1609.81 21533.3 1610.81 21530.3 1611.81 21527.3 1612.81 21528.6 1611.98 21526.6 1613.98C21526.3 1614.36 21525.8 1614.65 21525.3 1614.81L21522.3 1615.81 21519.5 1616.76C21517.7 1617.36 21515.7 1616.38 21515.1 1614.58 21514.5 1612.78 21515.5 1610.84 21517.3 1610.24ZM21561.2 1591.61 21562.1 1591.29 21561.7 1591.48 21563.7 1590.48 21566.3 1588.69C21566.6 1588.52 21566.8 1588.39 21567.1 1588.29L21570.1 1587.29 21573.1 1586.29 21576.1 1585.29 21574.8 1586.12 21576.8 1584.12C21577.2 1583.74 21577.6 1583.46 21578.1 1583.29L21579.5 1582.83C21581.3 1582.22 21583.3 1583.2 21583.9 1585 21584.5 1586.8 21583.5 1588.75 21581.7 1589.35L21580.3 1589.81 21581.6 1588.98 21579.6 1590.98C21579.3 1591.36 21578.8 1591.64 21578.3 1591.81L21575.3 1592.81 21572.3 1593.81 21569.3 1594.81 21570.1 1594.41 21566.7 1596.63 21564.7 1597.63C21564.6 1597.7 21564.4 1597.76 21564.3 1597.81L21563.4 1598.13C21561.6 1598.73 21559.6 1597.75 21559 1595.95 21558.4 1594.15 21559.4 1592.21 21561.2 1591.61ZM21604.1 1571.3 21604.1 1571.29 21602.8 1572.12 21604.8 1570.12C21605.2 1569.74 21605.6 1569.46 21606.1 1569.29L21609.1 1568.29 21608.3 1568.69 21611.3 1566.69C21611.6 1566.52 21611.8 1566.39 21612.1 1566.29L21615.1 1565.29 21618.1 1564.29 21616.8 1565.12 21618.8 1563.12C21619.2 1562.74 21619.6 1562.46 21620.1 1562.29L21621.9 1561.71C21623.7 1561.11 21625.6 1562.08 21626.2 1563.88 21626.8 1565.69 21625.8 1567.63 21624 1568.23L21622.3 1568.81 21623.6 1567.98 21621.6 1569.98C21621.3 1570.36 21620.8 1570.64 21620.3 1570.81L21617.3 1571.81 21614.3 1572.81 21615.1 1572.41 21612.1 1574.41C21611.9 1574.58 21611.6 1574.72 21611.3 1574.81L21608.3 1575.81 21609.6 1574.98 21607.6 1576.98C21607.3 1577.36 21606.8 1577.64 21606.3 1577.81L21606.3 1577.82C21604.5 1578.43 21602.5 1577.45 21601.9 1575.65 21601.3 1573.85 21602.3 1571.91 21604.1 1571.3ZM21645.3 1548.22 21648.1 1547.29 21647.3 1547.69 21650.3 1545.69 21653.3 1543.69C21653.6 1543.52 21653.8 1543.39 21654.1 1543.29L21657.1 1542.29 21655.8 1543.12 21657.8 1541.12C21658.2 1540.74 21658.6 1540.46 21659.1 1540.29L21662.1 1539.29 21661.3 1539.69 21662.4 1538.96C21664 1537.91 21666.1 1538.34 21667.2 1539.92 21668.2 1541.5 21667.8 1543.63 21666.2 1544.68L21665.1 1545.41C21664.9 1545.58 21664.6 1545.72 21664.3 1545.81L21661.3 1546.81 21662.6 1545.98 21660.6 1547.98C21660.3 1548.36 21659.8 1548.64 21659.3 1548.81L21656.3 1549.81 21657.1 1549.41 21654.1 1551.41 21651.1 1553.41C21650.9 1553.58 21650.6 1553.72 21650.3 1553.81L21647.5 1554.75C21645.7 1555.35 21643.8 1554.37 21643.2 1552.57 21642.5 1550.77 21643.5 1548.82 21645.3 1548.22ZM21684.9 1524.97 21685.8 1524.12C21686.2 1523.74 21686.6 1523.46 21687.1 1523.29L21690.1 1522.29 21689.3 1522.69 21692.3 1520.69 21695.3 1518.69 21694.8 1519.12 21696.8 1517.12C21696.9 1516.96 21697.1 1516.82 21697.3 1516.69L21700.3 1514.69C21700.6 1514.52 21700.8 1514.39 21701.1 1514.29L21703.6 1513.46C21705.4 1512.86 21707.4 1513.83 21708 1515.64 21708.6 1517.44 21707.6 1519.38 21705.8 1519.98L21703.3 1520.81 21704.1 1520.41 21701.1 1522.41 21701.6 1521.98 21699.6 1523.98C21699.5 1524.14 21699.3 1524.28 21699.1 1524.41L21696.1 1526.41 21693.1 1528.41C21692.9 1528.58 21692.6 1528.71 21692.3 1528.81L21689.3 1529.81 21690.6 1528.98 21689.8 1529.83C21688.5 1531.17 21686.3 1531.17 21684.9 1529.83 21683.6 1528.49 21683.6 1526.31 21684.9 1524.97ZM21725.4 1498.63 21728.3 1496.69 21731.3 1494.69 21734.3 1492.69 21737.3 1490.69 21736.8 1491.12 21738.8 1489.12C21738.9 1488.96 21739.1 1488.81 21739.3 1488.69L21742.2 1486.76C21743.8 1485.71 21745.9 1486.13 21747 1487.71 21748 1489.29 21747.6 1491.43 21746 1492.48L21743.1 1494.41 21743.6 1493.98 21741.6 1495.98C21741.5 1496.14 21741.3 1496.28 21741.1 1496.41L21738.1 1498.41 21735.1 1500.41 21732.1 1502.41 21729.2 1504.35C21727.6 1505.4 21725.5 1504.98 21724.4 1503.4 21723.4 1501.82 21723.8 1499.68 21725.4 1498.63ZM21764.4 1470.64 21767.3 1468.69 21770.3 1466.69 21773.3 1464.69 21776.3 1462.69 21775.8 1463.12 21777.8 1461.12C21777.9 1460.96 21778.1 1460.81 21778.3 1460.69L21781.2 1458.77C21782.8 1457.72 21784.9 1458.14 21786 1459.72 21787 1461.3 21786.6 1463.44 21785 1464.49L21782.1 1466.41 21782.6 1465.98 21780.6 1467.98C21780.5 1468.14 21780.3 1468.28 21780.1 1468.41L21777.1 1470.41 21774.1 1472.41 21771.1 1474.41 21768.2 1476.36C21766.6 1477.42 21764.5 1476.99 21763.4 1475.41 21762.4 1473.83 21762.8 1471.7 21764.4 1470.64ZM21803.1 1442.52 21804.3 1441.69 21803.4 1442.64 21805.4 1439.64C21805.6 1439.26 21805.9 1438.94 21806.3 1438.69L21809.3 1436.69 21812.3 1434.69 21815.3 1432.69 21818.3 1430.69 21817.4 1431.64 21818 1430.72C21819 1429.14 21821.2 1428.72 21822.7 1429.77 21824.3 1430.82 21824.7 1432.96 21823.7 1434.54L21823.1 1435.45C21822.8 1435.83 21822.5 1436.16 21822.1 1436.41L21819.1 1438.41 21816.1 1440.41 21813.1 1442.41 21810.1 1444.41 21811.1 1443.45 21809.1 1446.45C21808.8 1446.83 21808.5 1447.16 21808.1 1447.41L21806.9 1448.24C21805.3 1449.29 21803.2 1448.86 21802.1 1447.28 21801.1 1445.7 21801.5 1443.57 21803.1 1442.52ZM21839.2 1412.74 21839.8 1412.12C21839.9 1411.96 21840.1 1411.81 21840.3 1411.69L21843.3 1409.69 21842.8 1410.12 21844.8 1408.12 21847.8 1405.12C21847.9 1404.96 21848.1 1404.81 21848.3 1404.69L21851.3 1402.69 21854.3 1400.69 21853.8 1401.12 21855.1 1399.8C21856.4 1398.46 21858.6 1398.46 21860 1399.8 21861.3 1401.15 21861.3 1403.32 21860 1404.66L21858.6 1405.98C21858.5 1406.14 21858.3 1406.28 21858.1 1406.41L21855.1 1408.41 21852.1 1410.41 21852.6 1409.98 21849.6 1412.98 21847.6 1414.98C21847.5 1415.14 21847.3 1415.28 21847.1 1415.41L21844.1 1417.41 21844.6 1416.98 21844 1417.6C21842.7 1418.94 21840.5 1418.94 21839.2 1417.6 21837.8 1416.26 21837.8 1414.08 21839.2 1412.74ZM21875.4 1381.46 21875.8 1381.11C21875.9 1380.95 21876.1 1380.81 21876.3 1380.69L21879.3 1378.69 21878.8 1379.11 21881.8 1376.11C21881.9 1375.95 21882.1 1375.81 21882.3 1375.69L21885.3 1373.69 21884.4 1374.64 21886.4 1371.64C21886.6 1371.26 21886.9 1370.94 21887.3 1370.69L21890.3 1368.69 21889.8 1369.11 21890.8 1368.07C21892.2 1366.73 21894.4 1366.73 21895.7 1368.07 21897 1369.41 21897 1371.59 21895.7 1372.93L21894.6 1373.98C21894.5 1374.14 21894.3 1374.28 21894.1 1374.41L21891.1 1376.41 21892.1 1375.45 21890.1 1378.45C21889.8 1378.83 21889.5 1379.15 21889.1 1379.41L21886.1 1381.41 21886.6 1380.98 21883.6 1383.98C21883.5 1384.14 21883.3 1384.28 21883.1 1384.41L21880.1 1386.41 21880.6 1385.98 21880.3 1386.32C21879 1387.66 21876.8 1387.66 21875.4 1386.32 21874.1 1384.98 21874.1 1382.8 21875.4 1381.46ZM21910.4 1350.12 21911.4 1348.64C21911.6 1348.26 21911.9 1347.94 21912.3 1347.68L21915.3 1345.68 21914.8 1346.11 21917.8 1343.11 21920.8 1340.11C21920.9 1339.95 21921.1 1339.81 21921.3 1339.68L21924.3 1337.68 21923.4 1338.64 21925.1 1336.02C21926.2 1334.44 21928.3 1334.01 21929.9 1335.06 21931.5 1336.12 21931.9 1338.25 21930.8 1339.83L21929.1 1342.45C21928.8 1342.83 21928.5 1343.15 21928.1 1343.4L21925.1 1345.4 21925.7 1344.97 21922.7 1347.97 21919.7 1350.98C21919.5 1351.14 21919.3 1351.28 21919.1 1351.4L21916.1 1353.4 21917.1 1352.45 21916.1 1353.93C21915 1355.51 21912.9 1355.94 21911.3 1354.89 21909.7 1353.83 21909.3 1351.7 21910.4 1350.12ZM21945.4 1316.54 21945.8 1316.11 21948.8 1313.11C21948.9 1312.95 21949.1 1312.81 21949.3 1312.68L21952.3 1310.68 21951.4 1311.64 21953.4 1308.64C21953.5 1308.45 21953.6 1308.27 21953.8 1308.11L21956.8 1305.11 21959.8 1302.11 21959.8 1302.06C21961.2 1300.71 21963.4 1300.71 21964.7 1302.06 21966.1 1303.4 21966 1305.58 21964.7 1306.92L21964.7 1306.97 21961.7 1309.97 21958.7 1312.97 21959.1 1312.45 21957.1 1315.45C21956.8 1315.83 21956.5 1316.15 21956.1 1316.4L21953.1 1318.4 21953.7 1317.97 21950.7 1320.97 21950.2 1321.4C21948.9 1322.74 21946.7 1322.74 21945.4 1321.4 21944 1320.06 21944 1317.88 21945.4 1316.54ZM21978.3 1282.69 21978.4 1282.63C21978.6 1282.26 21978.9 1281.93 21979.3 1281.68L21982.3 1279.68 21981.8 1280.11 21984.8 1277.11 21987.8 1274.11 21990.8 1271.11 21990.4 1271.64 21992.4 1268.64C21992.5 1268.45 21992.6 1268.27 21992.8 1268.11L21993.2 1267.67C21994.6 1266.33 21996.7 1266.33 21998.1 1267.67 21999.4 1269.02 21999.4 1271.19 21998.1 1272.54L21997.7 1272.97 21998.1 1272.45 21996.1 1275.45C21996 1275.64 21995.8 1275.81 21995.7 1275.97L21992.7 1278.97 21989.7 1281.97 21986.7 1284.97C21986.5 1285.13 21986.3 1285.28 21986.1 1285.4L21983.1 1287.4 21984.1 1286.45 21984 1286.51C21983 1288.09 21980.9 1288.51 21979.3 1287.46 21977.7 1286.41 21977.3 1284.27 21978.3 1282.69ZM22012.1 1247.78 22012.8 1247.11 22015.8 1244.11 22018.8 1241.11 22018.4 1241.63 22020.4 1238.63C22020.5 1238.45 22020.6 1238.27 22020.8 1238.11L22023.8 1235.11 22026.2 1232.74C22027.5 1231.4 22029.7 1231.4 22031 1232.74 22032.4 1234.09 22032.4 1236.26 22031 1237.61L22028.7 1239.97 22025.7 1242.97 22026.1 1242.45 22024.1 1245.45C22024 1245.64 22023.8 1245.81 22023.7 1245.97L22020.7 1248.97 22017.7 1251.97 22017 1252.64C22015.6 1253.98 22013.5 1253.98 22012.1 1252.64 22010.8 1251.3 22010.8 1249.12 22012.1 1247.78ZM22044.4 1213.15 22045.4 1211.63C22045.5 1211.44 22045.6 1211.27 22045.8 1211.11L22048.8 1208.11 22048.5 1208.48 22051.5 1204.48C22051.6 1204.35 22051.7 1204.22 22051.8 1204.11L22054.8 1201.11 22057.8 1198.11 22057.4 1198.63 22058 1197.74C22059 1196.16 22061.1 1195.73 22062.7 1196.79 22064.3 1197.84 22064.7 1199.97 22063.7 1201.55L22063.1 1202.45C22063 1202.63 22062.8 1202.81 22062.7 1202.97L22059.7 1205.97 22056.7 1208.97 22057 1208.6 22054 1212.6C22053.9 1212.73 22053.8 1212.86 22053.7 1212.97L22050.7 1215.97 22051.1 1215.45 22050.1 1216.96C22049 1218.54 22046.9 1218.97 22045.3 1217.92 22043.7 1216.86 22043.3 1214.73 22044.4 1213.15ZM22076.4 1176.54 22076.8 1176.11 22079.8 1173.11 22079.5 1173.48 22082.5 1169.48 22084.4 1166.63C22084.5 1166.44 22084.6 1166.27 22084.8 1166.11L22087.8 1163.11 22087.5 1163.48 22089.2 1161.14C22090.4 1159.62 22092.5 1159.31 22094 1160.45 22095.6 1161.59 22095.9 1163.74 22094.7 1165.26L22093 1167.6C22092.9 1167.73 22092.8 1167.85 22092.7 1167.97L22089.7 1170.97 22090.1 1170.45 22088 1173.6 22085 1177.6C22084.9 1177.73 22084.8 1177.85 22084.7 1177.97L22081.7 1180.97 22081.2 1181.4C22079.9 1182.74 22077.7 1182.74 22076.4 1181.4 22075 1180.06 22075 1177.88 22076.4 1176.54ZM22107.7 1140.21 22107.8 1140.11 22107.5 1140.48 22110.5 1136.48 22112.4 1133.63 22115.5 1129.47C22115.6 1129.34 22115.7 1129.22 22115.8 1129.11L22118.8 1126.11 22120.7 1124.25C22122 1122.91 22124.2 1122.91 22125.5 1124.25 22126.9 1125.59 22126.9 1127.77 22125.5 1129.11L22123.7 1130.97 22120.7 1133.97 22121 1133.6 22118.1 1137.44 22116 1140.6 22113 1144.6C22112.9 1144.73 22112.8 1144.85 22112.7 1144.97L22112.5 1145.08C22111.2 1146.42 22109 1146.42 22107.7 1145.08 22106.3 1143.73 22106.3 1141.56 22107.7 1140.21ZM22137.9 1102.96 22138.8 1102.11 22138.4 1102.63 22140.4 1099.63 22143.5 1095.47C22143.6 1095.34 22143.7 1095.22 22143.8 1095.11L22146.8 1092.11 22146.5 1092.47 22149.5 1088.47 22150.2 1087.33C22151.3 1085.75 22153.4 1085.32 22155 1086.37 22156.6 1087.43 22157 1089.56 22156 1091.14L22155 1092.6 22152 1096.6C22151.9 1096.73 22151.8 1096.85 22151.7 1096.97L22148.7 1099.97 22149 1099.6 22146.1 1103.44 22144.1 1106.44C22144 1106.63 22143.8 1106.81 22143.7 1106.97L22142.8 1107.82C22141.5 1109.17 22139.3 1109.17 22137.9 1107.82 22136.6 1106.48 22136.6 1104.3 22137.9 1102.96ZM22167 1065.38 22168.5 1063.47C22168.6 1063.34 22168.7 1063.22 22168.8 1063.1L22171.8 1060.1 22171.5 1060.47 22174.5 1056.47 22177.5 1052.47 22179.4 1049.63 22179.7 1049.16C22180.8 1047.64 22183 1047.34 22184.5 1048.48 22186 1049.61 22186.3 1051.77 22185.2 1053.29L22185.1 1053.44 22183 1056.6 22180 1060.6 22177 1064.6C22176.9 1064.73 22176.8 1064.85 22176.7 1064.97L22173.7 1067.97 22174 1067.6 22172.5 1069.51C22171.4 1071.03 22169.2 1071.34 22167.7 1070.2 22166.2 1069.06 22165.9 1066.9 22167 1065.38ZM22196.7 1027.15 22196.8 1027.1 22196.5 1027.47 22199.5 1023.47 22202.5 1019.47C22202.6 1019.34 22202.7 1019.22 22202.8 1019.1L22205.8 1016.1 22205.2 1017 22207.2 1013C22207.2 1012.81 22207.4 1012.64 22207.5 1012.47L22208.6 1011C22209.7 1009.48 22211.9 1009.17 22213.4 1010.31 22214.9 1011.45 22215.2 1013.61 22214.1 1015.13L22213 1016.6 22213.3 1016.07 22211.3 1020.07C22211.1 1020.4 22210.9 1020.7 22210.7 1020.96L22207.7 1023.96 22208 1023.6 22205 1027.6 22202 1031.6C22201.9 1031.73 22201.8 1031.85 22201.7 1031.97L22201.6 1032.02C22200.3 1033.36 22198.1 1033.36 22196.7 1032.01 22195.4 1030.67 22195.4 1028.5 22196.7 1027.15ZM22224.9 988.972 22227.5 985.47C22227.6 985.34 22227.7 985.217 22227.8 985.102L22230.8 982.102 22230.2 982.995 22232.2 978.995C22232.2 978.811 22232.4 978.635 22232.5 978.47L22235.5 974.47 22237 972.444C22238.1 970.925 22240.3 970.617 22241.8 971.756 22243.3 972.895 22243.6 975.05 22242.5 976.569L22241 978.595 22238 982.595 22238.3 982.07 22236.3 986.07C22236.1 986.4 22235.9 986.702 22235.7 986.963L22232.7 989.963 22233 989.595 22230.4 993.097C22229.2 994.616 22227.1 994.924 22225.5 993.784 22224 992.645 22223.7 990.491 22224.9 988.972ZM22253.3 950.328 22255.5 947.469 22258.5 943.469 22258.2 943.994 22260.2 939.994C22260.2 939.809 22260.4 939.633 22260.5 939.469L22263.5 935.468 22265 933.406C22266.2 931.887 22268.3 931.579 22269.8 932.718 22271.4 933.857 22271.7 936.012 22270.5 937.531L22269 939.593 22266 943.594 22266.3 943.068 22264.3 947.068C22264.2 947.253 22264.1 947.429 22264 947.594L22261 951.594 22258.8 954.453C22257.7 955.972 22255.5 956.28 22254 955.141 22252.5 954.002 22252.2 951.847 22253.3 950.328ZM22280.8 910.984 22283.5 907.468 22283.2 907.993 22285.2 903.993C22285.2 903.808 22285.4 903.632 22285.5 903.467L22288.5 899.467 22291.5 895.467 22292.5 894.061 22292.5 894.061C22293.7 892.543 22295.8 892.235 22297.3 893.374 22298.9 894.513 22299.2 896.667 22298 898.186L22298 898.186 22297 899.592 22294 903.592 22291 907.592 22291.3 907.067 22289.3 911.067C22289.2 911.252 22289.1 911.428 22289 911.593L22286.3 915.109C22285.2 916.627 22283.1 916.935 22281.5 915.796 22280 914.657 22279.7 912.502 22280.8 910.984ZM22307.7 871.658 22308.3 870.76 22311.5 866.466 22311.2 866.991 22313.2 862.991C22313.2 862.807 22313.4 862.631 22313.5 862.466L22316.5 858.466 22319.5 854.466 22319.5 854.382C22320.7 852.863 22322.8 852.555 22324.4 853.694 22325.9 854.832 22326.2 856.987 22325 858.506L22325 858.591 22322 862.591 22319 866.591 22319.3 866.066 22317.3 870.066C22317.2 870.25 22317.1 870.426 22317 870.591L22314.2 874.297 22313.6 875.195C22312.7 876.823 22310.6 877.351 22308.9 876.374 22307.3 875.397 22306.8 873.286 22307.7 871.658ZM22334.8 831.69 22336.5 829.465 22339.3 824.759 22341.2 820.99C22341.2 820.806 22341.4 820.63 22341.5 820.465L22344.5 816.465 22346 814.432C22347.1 812.913 22349.3 812.605 22350.8 813.744 22352.3 814.884 22352.6 817.038 22351.5 818.557L22350 820.59 22347 824.59 22347.3 824.064 22345.2 828.296 22342 833.59 22340.3 835.815C22339.2 837.333 22337 837.641 22335.5 836.502 22334 835.363 22333.7 833.208 22334.8 831.69ZM22360.7 791.696 22361.3 790.758 22364.5 786.464 22364.2 786.989 22366.2 782.989 22369.3 777.757 22372 774.082C22373.2 772.563 22375.3 772.255 22376.8 773.394 22378.4 774.533 22378.7 776.688 22377.5 778.207L22375.2 781.294 22372.3 786.063 22370.3 790.063C22370.2 790.248 22370.1 790.424 22370 790.589L22367.2 794.295 22366.6 795.233C22365.6 796.861 22363.5 797.389 22361.9 796.412 22360.3 795.435 22359.7 793.324 22360.7 791.696ZM22386.6 751.249 22389.3 746.756 22392.5 742.462 22392.2 742.987 22394.2 738.987 22397.3 733.756 22397.5 733.396C22398.7 731.877 22400.8 731.569 22402.3 732.709 22403.9 733.848 22404.2 736.002 22403 737.521L22403.2 737.293 22400.3 742.062 22398.3 746.062C22398.2 746.246 22398.1 746.422 22398 746.587L22395.2 750.293 22392.5 754.786C22391.5 756.414 22389.4 756.942 22387.8 755.965 22386.1 754.988 22385.6 752.877 22386.6 751.249ZM22412 710.584 22414.3 706.755 22417.5 702.461 22417 703.247 22419 698.246C22419.2 697.966 22419.3 697.702 22419.5 697.461L22422.5 693.461 22422.7 693.091 22422.7 693.091C22423.7 691.463 22425.8 690.935 22427.4 691.912 22429 692.889 22429.6 695.001 22428.6 696.628L22428 697.586 22425 701.586 22425.4 700.8 22423.4 705.8C22423.3 706.08 22423.2 706.344 22423 706.586L22420.2 710.292 22417.9 714.121C22416.9 715.749 22414.8 716.277 22413.2 715.3 22411.5 714.324 22411 712.212 22412 710.584Z" fill="#AFABAB" fill-rule="nonzero" fill-opacity="1"/></g><g><text fill="#000000" fill-opacity="1" font-family="Times New Roman,Times New Roman_MSFontService,sans-serif" font-style="normal" font-variant="normal" font-weight="400" font-stretch="normal" font-size="50" text-anchor="start" direction="ltr" writing-mode="lr-tb" unicode-bidi="normal" text-decoration="none" transform="matrix(1 0 0 1 21064.6 1686)">0</text></g><g><text fill="#000000" fill-opacity="1" font-family="Times New Roman,Times New Roman_MSFontService,sans-serif" font-style="normal" font-variant="normal" font-weight="400" font-stretch="normal" font-size="50" text-anchor="start" direction="ltr" writing-mode="lr-tb" unicode-bidi="normal" text-decoration="none" transform="matrix(1 0 0 1 21014.2 1461)">500</text></g><g><text fill="#000000" fill-opacity="1" font-family="Times New Roman,Times New Roman_MSFontService,sans-serif" font-style="normal" font-variant="normal" font-weight="400" font-stretch="normal" font-size="50" text-anchor="start" direction="ltr" writing-mode="lr-tb" unicode-bidi="normal" text-decoration="none" transform="matrix(1 0 0 1 20989 1236)">1000</text></g><g><text fill="#000000" fill-opacity="1" font-family="Times New Roman,Times New Roman_MSFontService,sans-serif" font-style="normal" font-variant="normal" font-weight="400" font-stretch="normal" font-size="50" text-anchor="start" direction="ltr" writing-mode="lr-tb" unicode-bidi="normal" text-decoration="none" transform="matrix(1 0 0 1 20989 1011)">1500</text></g><g><text fill="#000000" fill-opacity="1" font-family="Times New Roman,Times New Roman_MSFontService,sans-serif" font-style="normal" font-variant="normal" font-weight="400" font-stretch="normal" font-size="50" text-anchor="start" direction="ltr" writing-mode="lr-tb" unicode-bidi="normal" text-decoration="none" transform="matrix(1 0 0 1 20989 785)">2000</text></g><g><text fill="#000000" fill-opacity="1" font-family="Times New Roman,Times New Roman_MSFontService,sans-serif" font-style="normal" font-variant="normal" font-weight="400" font-stretch="normal" font-size="50" text-anchor="start" direction="ltr" writing-mode="lr-tb" unicode-bidi="normal" text-decoration="none" transform="matrix(1 0 0 1 20989 560)">2500</text></g><g><text fill="#000000" fill-opacity="1" font-family="Times New Roman,Times New Roman_MSFontService,sans-serif" font-style="normal" font-variant="normal" font-weight="400" font-stretch="normal" font-size="50" text-anchor="start" direction="ltr" writing-mode="lr-tb" unicode-bidi="normal" text-decoration="none" transform="matrix(1 0 0 1 21120.1 1747)">0</text></g><g><text fill="#000000" fill-opacity="1" font-family="Times New Roman,Times New Roman_MSFontService,sans-serif" font-style="normal" font-variant="normal" font-weight="400" font-stretch="normal" font-size="50" text-anchor="start" direction="ltr" writing-mode="lr-tb" unicode-bidi="normal" text-decoration="none" transform="matrix(1 0 0 1 21265.7 1747)">100</text></g><g><text fill="#000000" fill-opacity="1" font-family="Times New Roman,Times New Roman_MSFontService,sans-serif" font-style="normal" font-variant="normal" font-weight="400" font-stretch="normal" font-size="50" text-anchor="start" direction="ltr" writing-mode="lr-tb" unicode-bidi="normal" text-decoration="none" transform="matrix(1 0 0 1 21436.5 1747)">200</text></g><g><text fill="#000000" fill-opacity="1" font-family="Times New Roman,Times New Roman_MSFontService,sans-serif" font-style="normal" font-variant="normal" font-weight="400" font-stretch="normal" font-size="50" text-anchor="start" direction="ltr" writing-mode="lr-tb" unicode-bidi="normal" text-decoration="none" transform="matrix(1 0 0 1 21607.3 1747)">300</text></g><g><text fill="#000000" fill-opacity="1" font-family="Times New Roman,Times New Roman_MSFontService,sans-serif" font-style="normal" font-variant="normal" font-weight="400" font-stretch="normal" font-size="50" text-anchor="start" direction="ltr" writing-mode="lr-tb" unicode-bidi="normal" text-decoration="none" transform="matrix(1 0 0 1 21778.2 1747)">400</text></g><g><text fill="#000000" fill-opacity="1" font-family="Times New Roman,Times New Roman_MSFontService,sans-serif" font-style="normal" font-variant="normal" font-weight="400" font-stretch="normal" font-size="50" text-anchor="start" direction="ltr" writing-mode="lr-tb" unicode-bidi="normal" text-decoration="none" transform="matrix(1 0 0 1 21949 1747)">500</text></g><g><text fill="#000000" fill-opacity="1" font-family="Times New Roman,Times New Roman_MSFontService,sans-serif" font-style="normal" font-variant="normal" font-weight="400" font-stretch="normal" font-size="50" text-anchor="start" direction="ltr" writing-mode="lr-tb" unicode-bidi="normal" text-decoration="none" transform="matrix(1 0 0 1 22119.8 1747)">600</text></g><g><text fill="#000000" fill-opacity="1" font-family="Times New Roman,Times New Roman_MSFontService,sans-serif" font-style="normal" font-variant="normal" font-weight="400" font-stretch="normal" font-size="50" text-anchor="start" direction="ltr" writing-mode="lr-tb" unicode-bidi="normal" text-decoration="none" transform="matrix(1 0 0 1 22290.6 1747)">700</text></g><g><text fill="#000000" fill-opacity="1" font-family="Times New Roman,Times New Roman_MSFontService,sans-serif" font-style="normal" font-variant="normal" font-weight="400" font-stretch="normal" font-size="50" text-anchor="start" direction="ltr" writing-mode="lr-tb" unicode-bidi="normal" text-decoration="none" transform="matrix(1 0 0 1 22461.4 1747)">800</text></g><g><text fill="#000000" fill-opacity="1" font-family="Times New Roman,Times New Roman_MSFontService,sans-serif" font-style="normal" font-variant="normal" font-weight="400" font-stretch="normal" font-size="50" text-anchor="start" direction="ltr" writing-mode="lr-tb" unicode-bidi="normal" text-decoration="none" transform="matrix(1 0 0 1 22632.3 1747)">900</text></g><g><text fill="#000000" fill-opacity="1" font-family="Times New Roman,Times New Roman_MSFontService,sans-serif" font-style="normal" font-variant="normal" font-weight="400" font-stretch="normal" font-size="50" text-anchor="start" direction="ltr" writing-mode="lr-tb" unicode-bidi="normal" text-decoration="none" transform="matrix(6.12323e-17 -1 1 6.12323e-17 20964.4 1239)">Load in MW</text></g><g><text fill="#000000" fill-opacity="1" font-family="Times New Roman,Times New Roman_MSFontService,sans-serif" font-style="normal" font-variant="normal" font-weight="400" font-stretch="normal" font-size="50" text-anchor="start" direction="ltr" writing-mode="lr-tb" unicode-bidi="normal" text-decoration="none" transform="matrix(1 0 0 1 21786.6 1817)">Load in kV</text></g><rect x="21268.5" y="634.5" width="875" height="224" stroke="#000000" stroke-width="3.4375" stroke-linecap="butt" stroke-linejoin="round" stroke-miterlimit="10" stroke-opacity="1" fill="#FFFFFF" fill-opacity="1"/><text fill="#000000" fill-opacity="1" font-family="Times New Roman,Times New Roman_MSFontService,sans-serif" font-style="normal" font-variant="normal" font-weight="400" font-stretch="normal" font-size="50" text-anchor="start" direction="ltr" writing-mode="lr-tb" unicode-bidi="normal" text-decoration="none" transform="matrix(1 0 0 1 21300.9 695)">Fitted Curve [R² = 0.998]:</text><text fill="#000000" fill-opacity="1" font-family="Times New Roman,Times New Roman_MSFontService,sans-serif" font-style="normal" font-variant="normal" font-weight="400" font-stretch="normal" font-size="50" text-anchor="start" direction="ltr" writing-mode="lr-tb" unicode-bidi="normal" text-decoration="none" transform="matrix(1 0 0 1 21364 807)">y = 0.004431x</text><text fill="#000000" fill-opacity="1" font-family="Times New Roman,Times New Roman_MSFontService,sans-serif" font-style="normal" font-variant="normal" font-weight="400" font-stretch="normal" font-size="34" text-anchor="start" direction="ltr" writing-mode="lr-tb" unicode-bidi="normal" text-decoration="none" transform="matrix(1 0 0 1 21657.2 792)">2</text><text fill="#000000" fill-opacity="1" font-family="Times New Roman,Times New Roman_MSFontService,sans-serif" font-style="normal" font-variant="normal" font-weight="400" font-stretch="normal" font-size="50" text-anchor="start" direction="ltr" writing-mode="lr-tb" unicode-bidi="normal" text-decoration="none" transform="matrix(1 0 0 1 21686.6 807)">-</text><text fill="#000000" fill-opacity="1" font-family="Times New Roman,Times New Roman_MSFontService,sans-serif" font-style="normal" font-variant="normal" font-weight="400" font-stretch="normal" font-size="50" text-anchor="start" direction="ltr" writing-mode="lr-tb" unicode-bidi="normal" text-decoration="none" transform="matrix(1 0 0 1 21716 807)">0.5154x + 20.82</text></g></g></svg>