<svg width="3254" height="1375" xmlns="http://www.w3.org/2000/svg" xmlns:xlink="http://www.w3.org/1999/xlink" xml:space="preserve" overflow="hidden"><g transform="translate(-1636 -2424)"><g><path d="M3300.5 3674C3300.5 3607.45 3458.1 3553.5 3652.5 3553.5 3846.9 3553.5 4004.5 3607.45 4004.5 3674 4004.5 3740.55 3846.9 3794.5 3652.5 3794.5 3458.1 3794.5 3300.5 3740.55 3300.5 3674Z" stroke="#000000" stroke-width="4.58333" stroke-linecap="butt" stroke-linejoin="miter" stroke-miterlimit="8" stroke-opacity="1" fill="#FFFFFF" fill-rule="evenodd" fill-opacity="1"/><text fill="#000000" fill-opacity="1" font-family="Times New Roman,Times New Roman_MSFontService,sans-serif" font-style="normal" font-variant="normal" font-weight="400" font-stretch="normal" font-size="60" text-anchor="start" direction="ltr" writing-mode="lr-tb" unicode-bidi="normal" text-decoration="none" transform="matrix(1 0 0 1 3515.71 3696)">EXPORTS</text><text fill="#000000" fill-opacity="1" font-family="Times New Roman,Times New Roman_MSFontService,sans-serif" font-style="normal" font-variant="normal" font-weight="400" font-stretch="normal" font-size="40" text-anchor="start" direction="ltr" writing-mode="lr-tb" unicode-bidi="normal" text-decoration="none" transform="matrix(1 0 0 1 3777.4 3678)">i</text><path d="M3299.5 2929.5C3299.5 2862.67 3457.1 2808.5 3651.5 2808.5 3845.9 2808.5 4003.5 2862.67 4003.5 2929.5 4003.5 2996.33 3845.9 3050.5 3651.5 3050.5 3457.1 3050.5 3299.5 2996.33 3299.5 2929.5Z" stroke="#000000" stroke-width="4.58333" stroke-linecap="butt" stroke-linejoin="miter" stroke-miterlimit="8" stroke-opacity="1" fill="#FFFFFF" fill-rule="evenodd" fill-opacity="1"/><text fill="#000000" fill-opacity="1" font-family="Times New Roman,Times New Roman_MSFontService,sans-serif" font-style="normal" font-variant="normal" font-weight="400" font-stretch="normal" font-size="60" text-anchor="start" direction="ltr" writing-mode="lr-tb" unicode-bidi="normal" text-decoration="none" transform="matrix(1 0 0 1 3465.26 2951)">INSTALLED</text><text fill="#000000" fill-opacity="1" font-family="Times New Roman,Times New Roman_MSFontService,sans-serif" font-style="normal" font-variant="normal" font-weight="400" font-stretch="normal" font-size="40" text-anchor="start" direction="ltr" writing-mode="lr-tb" unicode-bidi="normal" text-decoration="none" transform="matrix(1 0 0 1 3789.35 2933)">a,b</text><path d="M2480.5 3300.5C2480.5 3233.67 2638.1 3179.5 2832.5 3179.5 3026.9 3179.5 3184.5 3233.67 3184.5 3300.5 3184.5 3367.33 3026.9 3421.5 2832.5 3421.5 2638.1 3421.5 2480.5 3367.33 2480.5 3300.5Z" stroke="#D9D9D9" stroke-width="4.58333" stroke-linecap="butt" stroke-linejoin="miter" stroke-miterlimit="8" stroke-opacity="1" fill="#FFFFFF" fill-rule="evenodd" fill-opacity="1"/><text fill="#D9D9D9" fill-opacity="1" font-family="Times New Roman,Times New Roman_MSFontService,sans-serif" font-style="normal" font-variant="normal" font-weight="400" font-stretch="normal" font-size="60" text-anchor="start" direction="ltr" writing-mode="lr-tb" unicode-bidi="normal" text-decoration="none" transform="matrix(1 0 0 1 2675.55 3322)">INTERTIE</text><text fill="#D9D9D9" fill-opacity="1" font-family="Times New Roman,Times New Roman_MSFontService,sans-serif" font-style="normal" font-variant="normal" font-weight="400" font-stretch="normal" font-size="40" text-anchor="start" direction="ltr" writing-mode="lr-tb" unicode-bidi="normal" text-decoration="none" transform="matrix(1 0 0 1 2941.25 3304)">a,g</text><path d="M2477.5 2927C2477.5 2860.45 2635.1 2806.5 2829.5 2806.5 3023.9 2806.5 3181.5 2860.45 3181.5 2927 3181.5 2993.55 3023.9 3047.5 2829.5 3047.5 2635.1 3047.5 2477.5 2993.55 2477.5 2927Z" stroke="#000000" stroke-width="4.58333" stroke-linecap="butt" stroke-linejoin="miter" stroke-miterlimit="8" stroke-opacity="1" fill="#FFFFFF" fill-rule="evenodd" fill-opacity="1"/><text fill="#000000" fill-opacity="1" font-family="Times New Roman,Times New Roman_MSFontService,sans-serif" font-style="normal" font-variant="normal" font-weight="400" font-stretch="normal" font-size="60" text-anchor="start" direction="ltr" writing-mode="lr-tb" unicode-bidi="normal" text-decoration="none" transform="matrix(1 0 0 1 2614.38 2949)">INVESTMENT</text><text fill="#000000" fill-opacity="1" font-family="Times New Roman,Times New Roman_MSFontService,sans-serif" font-style="normal" font-variant="normal" font-weight="400" font-stretch="normal" font-size="40" text-anchor="start" direction="ltr" writing-mode="lr-tb" unicode-bidi="normal" text-decoration="none" transform="matrix(1 0 0 1 2995.95 2931)">d,e</text><path d="M3299.5 2551C3299.5 2484.45 3457.1 2430.5 3651.5 2430.5 3845.9 2430.5 4003.5 2484.45 4003.5 2551 4003.5 2617.55 3845.9 2671.5 3651.5 2671.5 3457.1 2671.5 3299.5 2617.55 3299.5 2551Z" stroke="#000000" stroke-width="4.58333" stroke-linecap="butt" stroke-linejoin="miter" stroke-miterlimit="8" stroke-opacity="1" fill="#FFFFFF" fill-rule="evenodd" fill-opacity="1"/><text fill="#000000" fill-opacity="1" font-family="Times New Roman,Times New Roman_MSFontService,sans-serif" font-style="normal" font-variant="normal" font-weight="400" font-stretch="normal" font-size="60" text-anchor="start" direction="ltr" writing-mode="lr-tb" unicode-bidi="normal" text-decoration="none" transform="matrix(1 0 0 1 3484.08 2573)">DEMAND</text><text fill="#000000" fill-opacity="1" font-family="Times New Roman,Times New Roman_MSFontService,sans-serif" font-style="normal" font-variant="normal" font-weight="400" font-stretch="normal" font-size="40" text-anchor="start" direction="ltr" writing-mode="lr-tb" unicode-bidi="normal" text-decoration="none" transform="matrix(1 0 0 1 3745.33 2587)">QC</text><text fill="#000000" fill-opacity="1" font-family="Times New Roman,Times New Roman_MSFontService,sans-serif" font-style="normal" font-variant="normal" font-weight="400" font-stretch="normal" font-size="40" text-anchor="start" direction="ltr" writing-mode="lr-tb" unicode-bidi="normal" text-decoration="none" transform="matrix(1 0 0 1 3800.33 2555)">c</text><path d="M4183.5 2557.5C4183.5 2490.67 4341.1 2436.5 4535.5 2436.5 4729.9 2436.5 4887.5 2490.67 4887.5 2557.5 4887.5 2624.33 4729.9 2678.5 4535.5 2678.5 4341.1 2678.5 4183.5 2624.33 4183.5 2557.5Z" stroke="#000000" stroke-width="4.58333" stroke-linecap="butt" stroke-linejoin="miter" stroke-miterlimit="8" stroke-opacity="1" fill="#FFFFFF" fill-rule="evenodd" fill-opacity="1"/><text fill="#000000" fill-opacity="1" font-family="Times New Roman,Times New Roman_MSFontService,sans-serif" font-style="normal" font-variant="normal" font-weight="400" font-stretch="normal" font-size="60" text-anchor="start" direction="ltr" writing-mode="lr-tb" unicode-bidi="normal" text-decoration="none" transform="matrix(1 0 0 1 4380.63 2579)">INTERTIE</text><text fill="#000000" fill-opacity="1" font-family="Times New Roman,Times New Roman_MSFontService,sans-serif" font-style="normal" font-variant="normal" font-weight="400" font-stretch="normal" font-size="40" text-anchor="start" direction="ltr" writing-mode="lr-tb" unicode-bidi="normal" text-decoration="none" transform="matrix(1 0 0 1 4646.33 2561)">f,g</text><path d="M3299.5 3303C3299.5 3236.45 3457.1 3182.5 3651.5 3182.5 3845.9 3182.5 4003.5 3236.45 4003.5 3303 4003.5 3369.55 3845.9 3423.5 3651.5 3423.5 3457.1 3423.5 3299.5 3369.55 3299.5 3303Z" stroke="#D9D9D9" stroke-width="4.58333" stroke-linecap="butt" stroke-linejoin="miter" stroke-miterlimit="8" stroke-opacity="1" fill="#FFFFFF" fill-rule="evenodd" fill-opacity="1"/><text fill="#D9D9D9" fill-opacity="1" font-family="Times New Roman,Times New Roman_MSFontService,sans-serif" font-style="normal" font-variant="normal" font-weight="400" font-stretch="normal" font-size="60" text-anchor="start" direction="ltr" writing-mode="lr-tb" unicode-bidi="normal" text-decoration="none" transform="matrix(1 0 0 1 3545.09 3325)">PRICE</text><text fill="#D9D9D9" fill-opacity="1" font-family="Times New Roman,Times New Roman_MSFontService,sans-serif" font-style="normal" font-variant="normal" font-weight="400" font-stretch="normal" font-size="40" text-anchor="start" direction="ltr" writing-mode="lr-tb" unicode-bidi="normal" text-decoration="none" transform="matrix(1 0 0 1 3714.1 3307)">f,b</text><path d="M2480.5 3673C2480.5 3606.45 2638.1 3552.5 2832.5 3552.5 3026.9 3552.5 3184.5 3606.45 3184.5 3673 3184.5 3739.55 3026.9 3793.5 2832.5 3793.5 2638.1 3793.5 2480.5 3739.55 2480.5 3673Z" stroke="#000000" stroke-width="4.58333" stroke-linecap="butt" stroke-linejoin="miter" stroke-miterlimit="8" stroke-opacity="1" fill="#FFFFFF" fill-rule="evenodd" fill-opacity="1"/><text fill="#000000" fill-opacity="1" font-family="Times New Roman,Times New Roman_MSFontService,sans-serif" font-style="normal" font-variant="normal" font-weight="400" font-stretch="normal" font-size="60" text-anchor="start" direction="ltr" writing-mode="lr-tb" unicode-bidi="normal" text-decoration="none" transform="matrix(1 0 0 1 2727.33 3695)">PRICE</text><text fill="#000000" fill-opacity="1" font-family="Times New Roman,Times New Roman_MSFontService,sans-serif" font-style="normal" font-variant="normal" font-weight="400" font-stretch="normal" font-size="40" text-anchor="start" direction="ltr" writing-mode="lr-tb" unicode-bidi="normal" text-decoration="none" transform="matrix(1 0 0 1 2896.34 3677)">i,b</text><path d="M3083.33 3382.59 3385.97 3573.34 3382.3 3579.16 3079.67 3388.41ZM3387.59 3562.17 3403.52 3588.47 3372.92 3585.44Z" fill="#D9D9D9" fill-rule="nonzero" fill-opacity="1"/><path d="M3184.53 3670.06 3277.44 3670.85 3277.38 3677.73 3184.47 3676.94ZM3272.94 3660.5 3300.32 3674.49 3272.71 3688Z" fill="#000000" fill-rule="nonzero" fill-opacity="1"/><path d="M3.4375-9.37709e-06 3.43758 27.5-3.43742 27.5-3.4375 9.37709e-06ZM3.43763 48.125 3.43771 75.625-3.43729 75.625-3.43737 48.125ZM3.43776 96.25 3.4378 109.381-3.4372 109.381-3.43724 96.25ZM13.7503 104.798 0.000360892 132.298-13.7497 104.798Z" fill="#D9D9D9" fill-rule="nonzero" fill-opacity="1" transform="matrix(1 0 0 -1 3651.5 3182.8)"/><path d="M3181.58 2923.06 3276.81 2925.23 3276.65 2932.1 3181.42 2929.94ZM3272.46 2914.82 3299.64 2929.19 3271.84 2942.31Z" fill="#D9D9D9" fill-rule="nonzero" fill-opacity="1"/><path d="M1.58961-3.04787 25.9726 9.66903 22.7934 15.7648-1.58961 3.04787ZM44.2598 19.2067 68.6428 31.9236 65.4636 38.0194 41.0806 25.3025ZM86.9301 41.4613 111.313 54.1782 108.134 60.2739 83.7509 47.557ZM129.6 63.7159 153.983 76.4328 150.804 82.5285 126.421 69.8116ZM172.271 85.9704 196.654 98.6873 193.474 104.783 169.091 92.0662ZM214.941 108.225 239.324 120.942 236.145 127.038 211.762 114.321ZM257.611 130.48 281.994 143.197 278.815 149.292 254.432 136.575ZM300.281 152.734 324.664 165.451 321.485 171.547 297.102 158.83ZM342.952 174.989 367.335 187.706 364.155 193.801 339.772 181.085ZM368.055 176.451 386.08 201.359 355.338 200.834Z" fill="#000000" fill-rule="nonzero" fill-opacity="1" transform="matrix(-1 0 0 1 4286.58 2642.5)"/><path d="M3654.94 2671.5 3654.94 2786.15 3648.06 2786.15 3648.06 2671.5ZM3665.25 2781.56 3651.5 2809.06 3637.75 2781.56Z" fill="#000000" fill-rule="nonzero" fill-opacity="1"/><path d="M1.84009-2.90353 306.82 190.376 303.14 196.183-1.84009 2.90353ZM308.469 179.212 324.337 205.547 293.749 202.44Z" fill="#D9D9D9" fill-rule="nonzero" fill-opacity="1" transform="matrix(-1 0 0 1 3402.84 2636.5)"/><path d="M2477.5 2565C2477.5 2498.45 2635.1 2444.5 2829.5 2444.5 3023.9 2444.5 3181.5 2498.45 3181.5 2565 3181.5 2631.55 3023.9 2685.5 2829.5 2685.5 2635.1 2685.5 2477.5 2631.55 2477.5 2565Z" stroke="#000000" stroke-width="4.58333" stroke-linecap="butt" stroke-linejoin="miter" stroke-miterlimit="8" stroke-opacity="1" fill="#FFFFFF" fill-rule="evenodd" fill-opacity="1"/><text fill="#000000" fill-opacity="1" font-family="Times New Roman,Times New Roman_MSFontService,sans-serif" font-style="normal" font-variant="normal" font-weight="400" font-stretch="normal" font-size="60" text-anchor="start" direction="ltr" writing-mode="lr-tb" unicode-bidi="normal" text-decoration="none" transform="matrix(1 0 0 1 2678.91 2587)">EXPORTS</text><text fill="#000000" fill-opacity="1" font-family="Times New Roman,Times New Roman_MSFontService,sans-serif" font-style="normal" font-variant="normal" font-weight="400" font-stretch="normal" font-size="40" text-anchor="start" direction="ltr" writing-mode="lr-tb" unicode-bidi="normal" text-decoration="none" transform="matrix(1 0 0 1 2940.59 2569)">c,j</text><path d="M2832.94 2685.5 2832.94 2783.23 2826.06 2783.23 2826.06 2685.5ZM2843.25 2778.64 2829.5 2806.14 2815.75 2778.64Z" fill="#000000" fill-rule="nonzero" fill-opacity="1"/><path d="M2832.94 3047.42 2835.61 3156.8 2828.74 3156.97 2826.06 3047.58ZM2845.81 3151.97 2832.74 3179.79 2818.32 3152.64Z" fill="#D9D9D9" fill-rule="nonzero" fill-opacity="1"/><path d="M1655.5 2946C1655.5 2879.45 1813.1 2825.5 2007.5 2825.5 2201.9 2825.5 2359.5 2879.45 2359.5 2946 2359.5 3012.55 2201.9 3066.5 2007.5 3066.5 1813.1 3066.5 1655.5 3012.55 1655.5 2946Z" stroke="#D9D9D9" stroke-width="4.58333" stroke-linecap="butt" stroke-linejoin="miter" stroke-miterlimit="8" stroke-opacity="1" fill="#FFFFFF" fill-rule="evenodd" fill-opacity="1"/><text fill="#D9D9D9" fill-opacity="1" font-family="Times New Roman,Times New Roman_MSFontService,sans-serif" font-style="normal" font-variant="normal" font-weight="400" font-stretch="normal" font-size="60" text-anchor="start" direction="ltr" writing-mode="lr-tb" unicode-bidi="normal" text-decoration="none" transform="matrix(1 0 0 1 1820.98 2968)">INSTALLED</text><text fill="#D9D9D9" fill-opacity="1" font-family="Times New Roman,Times New Roman_MSFontService,sans-serif" font-style="normal" font-variant="normal" font-weight="400" font-stretch="normal" font-size="40" text-anchor="start" direction="ltr" writing-mode="lr-tb" unicode-bidi="normal" text-decoration="none" transform="matrix(1 0 0 1 2145.07 2950)">h,e</text><path d="M2258.24 3028.53 2559.94 3205.26 2556.47 3211.19 2254.76 3034.47ZM2561.2 3194.04 2577.98 3219.81 2547.3 3217.77Z" fill="#D9D9D9" fill-rule="nonzero" fill-opacity="1"/><path d="M1641.5 3306.5C1641.5 3239.67 1799.1 3185.5 1993.5 3185.5 2187.9 3185.5 2345.5 3239.67 2345.5 3306.5 2345.5 3373.33 2187.9 3427.5 1993.5 3427.5 1799.1 3427.5 1641.5 3373.33 1641.5 3306.5Z" stroke="#000000" stroke-width="4.58333" stroke-linecap="butt" stroke-linejoin="miter" stroke-miterlimit="8" stroke-opacity="1" fill="#FFFFFF" fill-rule="evenodd" fill-opacity="1"/><text fill="#000000" fill-opacity="1" font-family="Times New Roman,Times New Roman_MSFontService,sans-serif" font-style="normal" font-variant="normal" font-weight="400" font-stretch="normal" font-size="60" text-anchor="start" direction="ltr" writing-mode="lr-tb" unicode-bidi="normal" text-decoration="none" transform="matrix(1 0 0 1 1817.84 3328)">DEMAND</text><text fill="#000000" fill-opacity="1" font-family="Times New Roman,Times New Roman_MSFontService,sans-serif" font-style="normal" font-variant="normal" font-weight="400" font-stretch="normal" font-size="40" text-anchor="start" direction="ltr" writing-mode="lr-tb" unicode-bidi="normal" text-decoration="none" transform="matrix(1 0 0 1 2079.09 3342)">US</text><text fill="#000000" fill-opacity="1" font-family="Times New Roman,Times New Roman_MSFontService,sans-serif" font-style="normal" font-variant="normal" font-weight="400" font-stretch="normal" font-size="40" text-anchor="start" direction="ltr" writing-mode="lr-tb" unicode-bidi="normal" text-decoration="none" transform="matrix(1 0 0 1 2130.08 3310)">i,e</text><path d="M1652.5 3673C1652.5 3606.45 1810.1 3552.5 2004.5 3552.5 2198.9 3552.5 2356.5 3606.45 2356.5 3673 2356.5 3739.55 2198.9 3793.5 2004.5 3793.5 1810.1 3793.5 1652.5 3739.55 1652.5 3673Z" stroke="#D9D9D9" stroke-width="4.58333" stroke-linecap="butt" stroke-linejoin="miter" stroke-miterlimit="8" stroke-opacity="1" fill="#FFFFFF" fill-rule="evenodd" fill-opacity="1"/><text fill="#D9D9D9" fill-opacity="1" font-family="Times New Roman,Times New Roman_MSFontService,sans-serif" font-style="normal" font-variant="normal" font-weight="400" font-stretch="normal" font-size="60" text-anchor="start" direction="ltr" writing-mode="lr-tb" unicode-bidi="normal" text-decoration="none" transform="matrix(1 0 0 1 1826.41 3695)">DEMAND</text><text fill="#D9D9D9" fill-opacity="1" font-family="Times New Roman,Times New Roman_MSFontService,sans-serif" font-style="normal" font-variant="normal" font-weight="400" font-stretch="normal" font-size="40" text-anchor="start" direction="ltr" writing-mode="lr-tb" unicode-bidi="normal" text-decoration="none" transform="matrix(1 0 0 1 2087.66 3709)">QC</text><text fill="#D9D9D9" fill-opacity="1" font-family="Times New Roman,Times New Roman_MSFontService,sans-serif" font-style="normal" font-variant="normal" font-weight="400" font-stretch="normal" font-size="40" text-anchor="start" direction="ltr" writing-mode="lr-tb" unicode-bidi="normal" text-decoration="none" transform="matrix(1 0 0 1 2142.66 3677)">i,e</text><path d="M2244.21 3388.52 2565.56 3573.18 2562.13 3579.14 2240.79 3394.48ZM2566.72 3561.96 2583.72 3587.58 2553.02 3585.8Z" fill="#000000" fill-rule="nonzero" fill-opacity="1"/><path d="M2356.5 3670.06 2458.03 3670.06 2458.03 3676.94 2356.5 3676.94ZM2453.45 3659.75 2480.95 3673.5 2453.45 3687.25Z" fill="#D9D9D9" fill-rule="nonzero" fill-opacity="1"/><path d="M3299.32 3306.63 3271.83 3305.98 3271.99 3299.11 3299.49 3299.75ZM3251.21 3305.5 3223.72 3304.86 3223.88 3297.98 3251.37 3298.63ZM3211.67 3314.89 3184.5 3300.5 3212.31 3287.4Z" fill="#D9D9D9" fill-rule="nonzero" fill-opacity="1"/><path d="M0.150091-3.43422 27.6239-2.23349 27.3237 4.63495-0.150091 3.43422ZM48.2292-1.33295 75.703-0.132219 75.4028 6.73622 47.929 5.5355ZM96.3083 0.768327 112.274 1.46612 111.974 8.33457 96.0081 7.63677ZM108.146-9.03666 135.019 5.90095 106.945 18.4371Z" fill="#D9D9D9" fill-rule="nonzero" fill-opacity="1" transform="matrix(1 0 0 -1 2345.5 3306.4)"/><text fill="#000000" fill-opacity="1" font-family="Times New Roman,Times New Roman_MSFontService,sans-serif" font-style="normal" font-variant="normal" font-weight="400" font-stretch="normal" font-size="55" text-anchor="start" direction="ltr" writing-mode="lr-tb" unicode-bidi="normal" text-decoration="none" transform="matrix(0.891251 -0.45351 0.45351 0.891251 3996.22 2749)">Hyp 1</text><text fill="#D9D9D9" fill-opacity="1" font-family="Times New Roman,Times New Roman_MSFontService,sans-serif" font-style="normal" font-variant="normal" font-weight="400" font-stretch="normal" font-size="55" text-anchor="start" direction="ltr" writing-mode="lr-tb" unicode-bidi="normal" text-decoration="none" transform="matrix(1 0 0 1 3454.65 3140)">Hyp 2</text><text fill="#D9D9D9" fill-opacity="1" font-family="Times New Roman,Times New Roman_MSFontService,sans-serif" font-style="normal" font-variant="normal" font-weight="400" font-stretch="normal" font-size="55" text-anchor="start" direction="ltr" writing-mode="lr-tb" unicode-bidi="normal" text-decoration="none" transform="matrix(1 0 0 1 3186.55 3259)">Hyp 3</text><text fill="#D9D9D9" fill-opacity="1" font-family="Times New Roman,Times New Roman_MSFontService,sans-serif" font-style="normal" font-variant="normal" font-weight="400" font-stretch="normal" font-size="55" text-anchor="start" direction="ltr" writing-mode="lr-tb" unicode-bidi="normal" text-decoration="none" transform="matrix(1 0 0 1 2343.23 3264)">Hyp 4</text><path d="M4003.5 2926.06 4073.65 2926.06 4073.65 3677.42 4027.34 3677.42 4027.34 3670.55 4070.21 3670.55 4066.77 3673.98 4066.77 2929.5 4070.21 2932.94 4003.5 2932.94ZM4031.92 3687.73 4004.42 3673.98 4031.92 3660.23Z" fill="#000000" fill-rule="nonzero" fill-opacity="1"/></g></g></svg>